<mxfile host="app.diagrams.net" modified="2023-05-19T07:16:29.634Z" agent="Mozilla/5.0 (Macintosh; Intel Mac OS X 10_15_7) AppleWebKit/537.36 (KHTML, like Gecko) Chrome/110.0.0.0 Safari/537.36" version="21.2.9" etag="s0MmqgvCxM5DthDYClCy" type="github">
  <diagram name="Page-1" id="df_ze7xgcm3t2_Z0U3iS">
    <mxGraphModel>
      <root>
        <mxCell id="0" />
        <mxCell id="1" parent="0" />
      </root>
    </mxGraphModel>
  </diagram>
</mxfile>
